<?xml version="1.0" standalone="no"?>
<!DOCTYPE svg PUBLIC "-//W3C//DTD SVG 20010904//EN"
 "http://www.w3.org/TR/2001/REC-SVG-20010904/DTD/svg10.dtd">
<svg version="1.0" xmlns="http://www.w3.org/2000/svg"
 width="400.000000pt" height="400.000000pt" viewBox="0 0 400.000000 400.000000"
 preserveAspectRatio="xMidYMid meet">
<metadata>
Created by potrace 1.14, written by Peter Selinger 2001-2017
</metadata>
<g transform="translate(0.000000,400.000000) scale(0.100000,-0.100000)"
fill="#000000" stroke="none">
<path d="M1149 3803 c-1 -5 -2 -21 -4 -38 -1 -16 -3 -36 -4 -42 -1 -8 -17 -13
-46 -13 l-45 0 0 -284 0 -285 48 -3 47 -3 1 -43 1 -42 851 -3 851 -2 3 45 3
45 48 3 47 3 0 285 0 284 -45 0 c-29 0 -46 5 -46 13 -1 6 -2 28 -3 47 l-1 35
-852 3 c-469 1 -854 -1 -854 -5z m1699 -373 l-3 -280 -845 0 -845 0 -3 280 -2
280 850 0 850 0 -2 -280z"/>
<path d="M1248 3213 c6 -2 18 -2 25 0 6 3 1 5 -13 5 -14 0 -19 -2 -12 -5z"/>
<path d="M2728 3213 c6 -2 18 -2 25 0 6 3 1 5 -13 5 -14 0 -19 -2 -12 -5z"/>
<path d="M1180 3170 c-20 -6 -21 -8 -5 -8 11 0 31 4 45 8 20 6 21 8 5 8 -11 0
-31 -4 -45 -8z"/>
<path d="M1263 3173 c9 -2 25 -2 35 0 9 3 1 5 -18 5 -19 0 -27 -2 -17 -5z"/>
<path d="M1328 3173 c6 -2 18 -2 25 0 6 3 1 5 -13 5 -14 0 -19 -2 -12 -5z"/>
<path d="M2653 3173 c9 -2 23 -2 30 0 6 3 -1 5 -18 5 -16 0 -22 -2 -12 -5z"/>
<path d="M2721 3176 c2 -2 31 -6 64 -9 37 -3 51 -2 35 3 -25 8 -107 13 -99 6z"/>
<path d="M1620 2810 l0 -50 -95 0 -95 0 0 -45 c0 -29 -5 -45 -12 -46 -7 -1
-29 -2 -48 -3 -34 -1 -35 -2 -38 -48 l-3 -48 -45 0 -44 0 0 -95 0 -95 -50 0
-50 0 0 -95 0 -95 -45 0 -45 0 0 -431 0 -431 43 4 42 3 3 -283 2 -282 50 0 50
0 0 -50 0 -50 95 0 95 0 0 50 0 50 45 0 45 0 0 45 0 45 50 0 50 0 0 51 0 50
-47 -3 -48 -3 -3 -48 -3 -47 -45 0 -44 0 0 -45 0 -45 -95 0 -95 0 0 285 0 285
-50 0 -50 0 0 425 0 425 50 0 50 0 0 95 0 95 45 0 45 0 0 95 0 95 50 0 50 0 0
45 0 45 68 1 c128 3 117 -2 120 52 l3 47 380 0 379 0 0 -50 0 -50 95 0 95 0 0
-45 0 -45 45 0 44 0 3 -92 3 -93 48 -3 47 -3 0 -95 0 -94 45 0 45 0 0 -425 0
-425 -45 0 -45 0 0 -285 0 -285 -95 0 -95 0 0 45 0 45 -50 0 -50 0 0 50 0 50
-45 0 -45 0 0 -50 0 -50 45 0 45 0 0 -45 0 -45 50 0 50 0 0 -50 0 -50 95 0 95
0 0 50 0 50 45 0 45 0 2 263 c0 144 1 270 0 280 -1 9 4 17 11 18 6 0 28 1 47
2 l35 2 3 427 2 427 -47 3 -48 3 0 93 0 92 -47 0 -48 0 0 95 0 95 -45 0 c-40
0 -45 3 -46 23 -3 74 -2 72 -39 73 -19 1 -41 2 -47 3 -8 1 -13 17 -13 46 l0
45 -95 0 -95 0 0 50 0 50 -380 0 -380 0 0 -50z"/>
<path d="M1520 2145 l0 -45 -45 0 -45 0 0 -95 0 -95 45 0 45 0 0 -50 0 -51 98
3 97 3 0 45 0 45 48 3 48 3 -3 92 -3 92 -47 3 -48 3 0 45 0 44 -95 0 -95 0 0
-45z"/>
<path d="M2280 2145 l0 -45 -45 0 -45 0 0 -95 0 -95 45 0 45 0 0 -50 0 -50 94
0 95 0 3 48 3 47 48 3 48 3 -3 92 -3 92 -47 3 -48 3 0 45 0 44 -95 0 -95 0 0
-45z"/>
<path d="M1714 1706 c-3 -8 -4 -29 -2 -48 3 -32 5 -33 51 -36 l47 -3 0 -47 0
-47 190 0 190 0 0 48 0 47 45 0 45 0 0 50 0 50 -45 0 -45 0 0 -50 0 -50 -190
0 -190 0 0 50 0 50 -45 0 c-30 0 -47 -5 -51 -14z"/>
<path d="M1622 1003 l3 -46 40 0 40 0 3 46 3 47 -46 0 -46 0 3 -47z"/>
<path d="M2280 1005 l0 -45 -45 0 -45 0 0 -94 0 -95 -47 -3 -48 -3 -3 -47 -3
-48 -95 0 -94 0 0 50 0 50 -45 0 -45 0 0 95 0 95 -50 0 -50 0 0 -94 0 -95 48
-3 47 -3 3 -47 3 -48 45 0 44 0 0 -45 0 -45 98 0 97 0 0 42 0 43 48 3 47 3 0
50 0 49 45 0 44 0 3 93 3 92 45 1 45 0 3 47 3 47 -50 0 -51 0 0 -45z"/>
</g>
</svg>
